 <svg version="1.0" xmlns="http://www.w3.org/2000/svg"
        width="1280.000000pt" height="643.000000pt" viewBox="0 0 1280.000000 643.000000"
        preserveAspectRatio="xMidYMid meet">
        <metadata>
        Created by potrace 1.15, written by Peter Selinger 2001-2017
        </metadata>
        <g transform="translate(0.000000,643.000000) scale(0.100000,-0.100000)"
        fill="#000000" stroke="none">
        <path d="M4665 6398 c-94 -25 -136 -30 -290 -36 -200 -8 -220 -14 -264 -86
        -35 -57 -67 -63 -179 -36 -112 27 -176 23 -249 -13 -51 -26 -116 -91 -145
        -145 -15 -29 -78 -67 -140 -86 -27 -8 -22 -44 10 -76 36 -36 111 -52 201 -44
        79 8 134 -7 156 -40 8 -12 40 -105 71 -207 63 -206 73 -230 117 -276 67 -71
        134 -65 249 23 118 90 162 109 395 169 144 38 252 81 290 117 15 14 25 38 29
        68 l6 47 59 6 c105 9 133 46 109 147 -24 107 -24 117 3 144 13 13 44 30 68 37
        24 7 47 18 51 24 16 22 8 92 -13 119 -26 33 -60 34 -132 1 -75 -35 -95 -26
        -138 60 -40 80 -78 115 -122 114 -18 -1 -81 -15 -142 -31z m195 -35 c11 -14
        29 -46 40 -70 40 -92 98 -115 180 -73 51 26 86 26 100 -1 19 -35 5 -64 -38
        -77 -54 -16 -88 -46 -102 -87 -10 -30 -8 -47 11 -110 20 -70 21 -76 5 -100
        -14 -22 -23 -25 -74 -25 -75 0 -94 -14 -101 -76 -5 -41 -11 -52 -39 -71 -48
        -32 -125 -59 -297 -104 -178 -47 -256 -82 -350 -154 -109 -83 -152 -93 -205
        -49 -43 37 -60 75 -120 274 -61 204 -70 224 -113 250 -27 17 -51 20 -147 20
        -90 0 -123 4 -149 18 -46 23 -48 35 -8 50 56 20 127 72 127 93 0 30 70 100
        125 125 59 28 133 31 215 9 112 -30 180 -15 220 50 40 65 54 69 259 76 154 6
        202 11 276 32 123 34 158 34 185 0z"/>
        <path d="M9171 5935 c-35 -8 -112 -30 -172 -50 -59 -20 -172 -47 -251 -60
        -161 -27 -236 -50 -298 -91 -35 -23 -44 -26 -48 -14 -9 28 -69 76 -109 88 -99
        30 -166 9 -303 -94 -136 -102 -157 -109 -500 -149 -118 -13 -234 -27 -257 -30
        l-41 -6 1 35 c1 49 -28 85 -93 118 -114 57 -296 58 -486 3 -149 -44 -396 -156
        -486 -222 -112 -81 -122 -192 -23 -253 l33 -20 -37 -38 c-20 -21 -52 -57 -72
        -80 -60 -71 -105 -57 -206 63 -74 88 -113 115 -168 115 -61 0 -69 -14 -63
        -113 6 -93 29 -150 76 -188 l29 -24 -38 -36 c-44 -40 -49 -68 -23 -123 26 -53
        14 -77 -71 -135 -83 -58 -105 -89 -105 -153 0 -55 29 -103 76 -125 l35 -17
        -33 -12 c-23 -8 -32 -17 -31 -30 3 -30 -49 -125 -136 -248 -145 -204 -187
        -330 -178 -531 8 -190 64 -335 179 -460 119 -130 192 -140 391 -54 39 17 97
        33 128 36 53 5 58 4 74 -21 24 -36 68 -58 121 -59 40 0 44 -2 38 -20 -12 -37
        -5 -204 10 -264 9 -32 30 -93 47 -134 45 -104 45 -197 0 -369 -42 -159 -49
        -259 -27 -370 29 -142 82 -240 203 -373 44 -49 78 -101 108 -163 64 -134 123
        -172 222 -145 98 26 158 87 220 221 60 131 84 173 148 255 83 107 95 133 111
        240 15 99 23 112 116 166 85 50 106 159 58 309 -52 163 -29 245 126 455 49 67
        106 152 126 191 46 87 96 235 100 294 l3 45 -90 -3 c-81 -3 -93 -1 -125 20
        -19 13 -50 45 -70 70 -39 52 -154 257 -148 263 2 2 35 -46 73 -108 88 -142
        103 -157 155 -157 73 0 338 117 437 192 93 71 131 197 83 276 -24 39 -24 39
        109 7 267 -65 365 -176 431 -487 23 -108 40 -142 79 -158 38 -15 70 -8 110 25
        39 33 50 71 60 199 10 117 32 170 93 221 71 60 171 74 246 36 54 -28 109 -95
        120 -145 l8 -41 45 2 45 2 58 -99 c31 -55 62 -103 68 -106 6 -4 17 1 25 12 13
        18 15 17 38 -12 28 -36 89 -64 141 -64 63 0 119 43 149 112 21 52 19 87 -9
        141 -16 32 -19 47 -11 47 22 0 64 59 70 98 14 84 36 111 156 195 80 55 114 94
        146 165 64 138 43 312 -52 428 -41 49 -42 54 -15 54 49 0 78 -29 119 -113 58
        -123 122 -167 190 -132 51 26 62 61 60 189 -3 142 2 151 119 210 99 50 142 90
        172 159 44 98 36 212 -20 301 l-29 45 27 20 c42 30 134 57 277 81 71 12 147
        29 168 36 22 8 43 14 47 14 4 0 -8 -30 -27 -66 -78 -147 -43 -290 86 -347 53
        -23 98 -17 141 20 42 35 56 65 76 164 35 174 69 204 270 239 135 23 212 56
        249 104 70 93 27 213 -97 266 -49 21 -59 22 -257 15 -170 -6 -221 -4 -291 9
        -153 29 -391 95 -601 166 -114 39 -220 70 -238 70 -47 0 -71 -30 -71 -90 0
        -49 0 -49 -36 -56 -83 -15 -289 14 -574 81 -102 24 -223 51 -270 60 -119 24
        -357 29 -439 10z m404 -41 c50 -9 185 -38 301 -65 261 -61 379 -79 512 -79
        125 0 142 11 142 90 0 37 4 52 16 57 9 3 118 -29 242 -71 255 -85 541 -161
        679 -178 71 -9 121 -9 226 1 144 14 200 10 257 -19 76 -39 107 -99 84 -166
        -24 -71 -85 -102 -254 -130 -101 -16 -171 -42 -208 -77 -37 -34 -57 -83 -82
        -192 -19 -83 -28 -105 -55 -132 -37 -37 -77 -43 -123 -19 -126 66 -125 217 3
        394 47 66 37 87 -21 48 -57 -37 -113 -54 -271 -81 -197 -34 -252 -54 -315
        -113 l-27 -25 26 -31 c68 -80 84 -206 39 -301 -30 -65 -58 -89 -163 -144 -123
        -65 -128 -75 -128 -225 0 -141 -13 -176 -65 -176 -43 0 -78 36 -124 130 -45
        93 -79 122 -142 122 -32 0 -74 -24 -74 -42 0 -4 18 -26 40 -49 113 -118 132
        -300 47 -442 -24 -40 -58 -73 -132 -129 -111 -84 -141 -121 -151 -186 -7 -51
        -37 -94 -64 -94 -24 0 -60 59 -60 99 0 40 -26 42 -41 4 -18 -47 -3 -89 47
        -129 54 -45 74 -80 74 -131 0 -75 -59 -136 -131 -135 -53 1 -100 29 -122 75
        -20 41 -28 44 -47 22 -7 -8 -16 -15 -19 -15 -4 0 -32 43 -62 95 l-54 96 -42
        -6 c-35 -5 -43 -3 -43 10 0 25 -29 77 -64 113 -96 103 -251 107 -360 11 -70
        -61 -96 -125 -105 -258 -9 -118 -22 -153 -66 -173 -30 -13 -71 -4 -80 19 -4
        10 -22 77 -40 149 -42 169 -82 252 -160 330 -88 89 -133 107 -431 178 -127 30
        -237 74 -341 137 -45 27 -87 49 -92 49 -18 0 -33 -42 -28 -76 3 -19 15 -48 27
        -64 36 -51 72 -63 213 -71 95 -5 137 -12 165 -26 48 -25 75 -75 67 -127 -16
        -110 -102 -179 -358 -285 -127 -53 -159 -59 -184 -34 -24 24 -401 626 -419
        670 -18 42 -17 93 1 117 8 11 15 23 15 27 0 12 -139 95 -224 134 l-78 36 -54
        -41 -53 -40 -83 120 c-46 66 -90 120 -99 120 -27 0 -70 -55 -76 -96 l-5 -39
        -78 78 c-96 94 -180 138 -263 138 -87 0 -125 -22 -236 -137 -103 -108 -144
        -134 -206 -134 -47 0 -71 14 -90 50 -33 64 -12 108 83 173 100 68 121 108 87
        167 -35 61 -8 105 80 130 51 14 62 40 16 40 -41 0 -93 39 -118 90 -29 57 -33
        177 -6 187 28 11 85 -29 150 -107 122 -146 190 -153 288 -30 46 58 61 70 85
        70 22 0 33 -8 51 -37 35 -60 70 -92 106 -99 64 -12 144 33 217 125 60 75 100
        103 149 107 75 7 76 46 2 43 -80 -5 -141 61 -131 140 9 68 -21 88 -84 56 -46
        -24 -60 -62 -60 -160 0 -105 -15 -140 -65 -154 -64 -17 -198 32 -262 95 -44
        44 -18 119 60 173 99 68 344 175 490 216 214 59 447 36 504 -51 25 -39 8 -77
        -37 -84 -52 -7 -47 -35 5 -34 65 3 635 74 684 86 64 15 122 47 226 122 107 78
        167 100 232 86 24 -6 55 -18 69 -27 32 -20 57 -68 49 -93 -10 -33 17 -35 44
        -4 60 70 139 102 314 130 123 19 178 32 322 79 175 57 309 64 520 29z m-3048
        -460 c-8 -41 11 -92 50 -135 l36 -40 -31 -27 c-17 -15 -49 -49 -71 -76 -80
        -99 -172 -134 -218 -83 -11 12 -25 31 -31 43 -11 20 -9 21 38 16 61 -6 103 11
        133 52 19 27 22 42 20 120 -3 111 15 152 66 155 9 1 12 -7 8 -25z m-376 -849
        c34 -17 87 -60 142 -117 72 -73 89 -86 94 -71 4 10 11 21 17 25 6 4 11 21 12
        39 1 17 11 40 22 51 19 20 20 19 103 -101 46 -66 90 -121 98 -121 7 0 35 19
        62 41 l50 41 102 -51 c142 -71 150 -78 136 -119 -6 -18 -8 -45 -4 -60 6 -27 6
        -27 -32 10 -54 53 -116 76 -228 88 -107 11 -129 8 -196 -27 -56 -29 -65 -27
        -204 33 -99 43 -100 45 -130 101 -58 112 -152 130 -354 69 -61 -18 -111 -33
        -111 -32 0 1 42 46 93 101 52 56 109 106 132 117 53 25 125 18 196 -17z m-54
        -185 c34 -15 48 -30 72 -78 l30 -59 108 -48 c139 -61 184 -67 248 -30 45 27
        51 28 138 22 188 -13 248 -54 297 -203 18 -52 36 -80 91 -139 57 -62 81 -100
        139 -217 162 -333 238 -410 388 -395 28 3 52 2 52 -1 0 -4 -9 -41 -20 -82 -32
        -116 -99 -243 -201 -380 -162 -220 -185 -300 -135 -482 45 -166 31 -242 -56
        -288 -90 -49 -103 -70 -118 -187 -11 -83 -31 -127 -92 -204 -69 -85 -101 -137
        -148 -241 -24 -53 -59 -117 -77 -142 -61 -85 -186 -123 -247 -75 -14 11 -46
        62 -70 112 -31 65 -66 116 -118 174 -141 157 -188 265 -195 443 -5 107 -3 125
        31 259 50 200 50 267 -3 404 -61 159 -73 247 -50 371 12 68 4 83 -34 65 -41
        -19 -92 -3 -138 43 -39 40 -41 41 -94 34 -29 -3 -105 -26 -168 -51 -175 -68
        -226 -60 -330 55 -113 125 -169 278 -170 465 -1 185 36 286 175 483 44 61 93
        140 109 175 17 34 34 69 38 77 4 8 50 27 102 43 365 109 373 110 446 77z
        m1621 -422 l97 -49 -81 4 c-117 7 -174 43 -174 110 l0 28 31 -22 c17 -12 74
        -44 127 -71z m-648 -16 c45 -70 50 -84 20 -57 -25 23 -55 71 -65 105 -10 33
        -3 26 45 -48z"/>
        <path d="M1535 5856 c-27 -13 -61 -35 -74 -49 -31 -34 -22 -46 73 -93 l71 -35
        -145 5 c-80 3 -266 8 -415 12 -230 5 -282 9 -355 27 -117 30 -310 29 -424 -2
        -149 -40 -285 -119 -233 -136 6 -2 52 -16 102 -30 102 -31 100 -38 -20 -53
        -124 -17 -145 -58 -76 -154 26 -36 38 -62 35 -75 -5 -17 4 -22 62 -40 l67 -20
        -86 -74 c-48 -41 -87 -77 -87 -82 0 -17 60 -29 133 -25 74 5 85 9 260 96 100
        50 199 96 219 102 63 19 167 14 239 -12 164 -60 375 -252 458 -415 19 -39 46
        -126 72 -239 49 -212 91 -339 165 -494 76 -159 174 -321 193 -318 21 4 33 70
        28 146 -3 34 -3 62 -2 62 2 0 16 -37 31 -82 84 -258 137 -313 399 -418 253
        -102 296 -132 369 -258 64 -112 102 -142 178 -142 24 0 50 4 58 10 20 12 30
        -5 30 -53 0 -44 -5 -54 -75 -162 -73 -111 -96 -178 -102 -300 -9 -164 26 -266
        142 -420 95 -127 117 -177 123 -289 5 -111 -11 -198 -80 -421 -178 -578 -254
        -1073 -190 -1235 29 -74 73 -125 136 -158 70 -37 188 -38 256 -3 49 25 90 59
        90 74 0 5 -16 27 -36 49 -45 50 -63 92 -71 168 -8 80 9 160 67 310 27 69 55
        150 62 179 14 54 14 54 66 67 98 25 205 96 276 183 23 27 62 65 87 85 101 77
        182 196 229 336 29 87 56 113 164 155 189 74 246 147 271 349 17 138 26 162
        100 251 69 84 83 111 91 168 12 85 -57 182 -166 236 -30 15 -99 45 -154 66
        -120 47 -163 84 -254 219 -82 122 -127 156 -307 227 -165 65 -175 70 -262 136
        -57 44 -82 57 -119 61 -26 3 -55 13 -65 23 -34 34 -85 17 -170 -58 -69 -61
        -107 -78 -156 -68 -55 10 -90 53 -99 123 -10 82 -18 98 -84 164 -50 49 -60 65
        -60 93 0 24 6 37 20 45 42 22 13 74 -48 86 -22 4 -52 -1 -92 -15 -82 -30 -128
        -25 -156 16 -32 48 -49 149 -34 203 22 83 105 126 194 101 88 -24 147 -101
        197 -256 25 -78 40 -108 69 -137 42 -43 94 -57 136 -36 46 22 51 42 22 77 -62
        73 -63 176 -5 293 38 77 391 541 449 591 41 35 84 35 172 2 89 -33 127 -33
        168 4 28 25 32 35 32 78 0 88 -63 153 -163 169 -29 5 -38 10 -29 15 17 12 83
        30 136 39 42 7 44 6 62 -29 36 -71 101 -111 181 -111 89 0 154 60 130 121 -16
        44 -129 186 -199 250 -55 51 -171 134 -258 185 -16 9 -10 13 40 29 59 19 160
        78 185 108 18 23 7 35 -93 101 -110 73 -228 130 -349 171 -172 57 -253 70
        -437 70 -157 0 -168 -1 -220 -26 -30 -14 -89 -51 -132 -81 -80 -58 -150 -84
        -199 -73 -26 6 -29 11 -29 44 0 37 -22 77 -60 109 -35 30 -90 44 -199 52 -64
        5 -164 20 -223 34 -141 34 -235 34 -303 2z m320 -41 c55 -13 143 -27 195 -30
        128 -9 160 -18 200 -60 27 -28 34 -44 35 -76 1 -53 23 -69 91 -69 64 0 119 23
        204 85 35 27 89 60 120 74 52 24 63 26 200 25 217 -2 408 -48 605 -146 86 -43
        235 -138 235 -149 0 -13 -97 -69 -155 -89 -77 -27 -101 -25 -212 10 -51 17
        -102 30 -113 30 -31 0 -105 75 -134 135 -28 61 -51 70 -86 35 -16 -16 -20 -31
        -18 -71 2 -45 -1 -54 -25 -75 -39 -33 -86 -39 -198 -24 -116 15 -161 7 -208
        -40 -41 -41 -47 -79 -22 -128 57 -113 221 -178 353 -142 97 27 184 121 215
        232 14 50 20 58 40 58 14 0 44 -12 69 -26 50 -29 133 -54 183 -54 47 0 194
        -79 290 -157 88 -70 152 -138 218 -231 53 -73 52 -100 -1 -126 -44 -21 -71
        -20 -122 3 -47 21 -80 59 -89 103 l-7 31 -62 -6 c-102 -8 -278 -80 -262 -106
        3 -4 38 -11 78 -15 122 -11 188 -59 188 -135 0 -32 -37 -81 -60 -81 -7 0 -52
        14 -102 31 -100 35 -138 34 -188 -1 -54 -38 -426 -526 -473 -619 -38 -77 -42
        -90 -41 -160 0 -58 5 -86 22 -118 12 -23 26 -45 32 -48 19 -12 -1 -25 -35 -25
        -59 0 -90 39 -134 167 -43 125 -86 193 -150 238 -39 27 -50 30 -124 30 -71 0
        -87 -3 -116 -24 -44 -32 -71 -92 -71 -162 0 -125 60 -229 134 -229 19 0 58 9
        86 20 28 11 66 20 85 20 35 0 54 -14 35 -25 -19 -12 -31 -56 -24 -92 5 -25 25
        -54 69 -97 61 -62 75 -91 75 -153 0 -72 74 -143 152 -146 49 -2 98 24 186 98
        61 52 87 59 72 20 -10 -27 2 -75 20 -75 6 0 15 11 20 25 11 29 53 48 84 39 11
        -3 53 -30 91 -59 85 -63 97 -70 260 -135 194 -77 235 -109 320 -248 61 -99
        128 -154 242 -198 138 -53 192 -81 236 -123 50 -47 67 -80 67 -133 0 -49 -18
        -82 -92 -171 -69 -83 -85 -123 -97 -246 -21 -202 -78 -271 -285 -346 -76 -28
        -121 -74 -147 -153 -35 -110 -88 -200 -154 -266 -222 -220 -272 -264 -335
        -294 -36 -17 -81 -33 -101 -37 -50 -9 -53 -13 -73 -85 -9 -36 -37 -117 -61
        -181 -54 -142 -66 -193 -66 -281 0 -90 22 -164 65 -215 40 -46 39 -49 -35 -82
        -28 -13 -65 -21 -104 -21 -118 0 -206 67 -240 183 -49 166 37 684 200 1197 60
        191 79 286 79 395 0 144 -19 190 -163 389 -60 81 -88 152 -103 255 -18 133 23
        284 108 395 70 92 87 156 59 221 -17 43 -37 52 -67 31 -58 -41 -122 -4 -191
        109 -27 44 -65 97 -85 117 -42 44 -153 104 -273 148 -258 95 -324 157 -394
        370 -37 113 -77 192 -120 235 -33 33 -65 46 -65 27 0 -5 14 -37 32 -72 26 -52
        32 -79 35 -144 l4 -81 -20 25 c-34 41 -187 358 -220 455 -30 91 -65 224 -96
        368 -33 152 -133 306 -280 429 -142 120 -248 174 -361 185 -101 9 -170 -11
        -349 -103 -88 -45 -185 -89 -215 -98 -59 -18 -120 -21 -120 -7 0 5 36 40 80
        77 44 37 79 72 77 78 -2 6 -35 20 -73 32 -49 16 -70 27 -73 40 -2 11 -19 40
        -38 66 -21 29 -33 56 -31 70 3 24 18 29 141 43 35 5 51 12 63 31 9 13 14 30
        11 37 -3 7 -41 24 -86 38 -44 13 -81 27 -81 31 0 13 148 67 229 84 102 20 288
        15 366 -10 41 -14 146 -19 575 -31 289 -9 531 -13 538 -10 31 12 1 29 -79 45
        -93 19 -232 77 -226 94 5 16 65 49 106 57 50 11 138 2 256 -26z m1236 -272 c6
        -16 21 -42 35 -60 29 -38 29 -39 4 -46 -16 -4 -20 -14 -20 -44 0 -50 -50 -153
        -92 -188 -111 -94 -261 -92 -370 4 -68 60 -74 123 -14 160 38 24 88 26 199 10
        92 -14 147 -1 194 46 29 29 33 39 33 89 0 60 14 73 31 29z"/>
        <path d="M10909 5074 c-11 -13 -14 -63 -15 -228 -2 -276 -23 -417 -72 -469
        -18 -19 -53 -36 -108 -53 -45 -13 -97 -35 -115 -47 -99 -66 -102 -234 -4 -253
        75 -14 256 107 307 205 24 45 28 65 28 130 0 98 12 116 87 131 74 16 103 45
        103 102 -1 56 -16 74 -86 101 -44 17 -60 29 -62 45 -2 14 2 22 11 22 8 0 22 9
        32 20 15 16 17 30 12 82 -9 90 -23 132 -57 168 -16 17 -28 36 -27 42 4 18 -19
        19 -34 2z m70 -141 c6 -23 11 -62 11 -87 0 -39 -3 -46 -29 -59 l-28 -14 -7
        113 c-4 63 -4 119 0 125 10 17 41 -27 53 -78z m36 -272 c106 -29 99 -119 -10
        -136 -34 -5 -57 -16 -77 -36 l-30 -29 6 27 c13 65 26 161 26 195 l0 37 24 -24
        c13 -13 40 -28 61 -34z m-122 -313 c-4 -93 -33 -143 -116 -205 -150 -110 -217
        -112 -217 -6 0 47 29 97 69 118 17 8 65 26 108 40 78 24 131 63 146 108 11 31
        14 18 10 -55z"/>
        <path d="M10122 3125 c-75 -57 -121 -113 -101 -126 10 -7 23 1 44 25 38 44
        105 97 115 91 4 -2 10 -17 13 -32 3 -16 22 -54 41 -87 40 -65 43 -83 20 -127
        -12 -23 -14 -46 -9 -92 6 -58 5 -64 -19 -86 -17 -16 -41 -25 -76 -29 -130 -12
        -259 102 -260 229 l0 47 45 6 c28 5 45 12 45 21 0 21 -10 23 -70 11 l-55 -11
        -3 -43 c-5 -66 22 -142 69 -196 92 -104 245 -134 325 -64 38 34 49 72 35 123
        -8 29 -6 44 11 81 23 54 20 71 -26 148 -19 31 -40 79 -46 106 -7 28 -18 50
        -25 50 -7 0 -40 -20 -73 -45z"/>
        <path d="M9348 3074 c-13 -13 -9 -73 7 -104 8 -16 46 -54 85 -85 61 -49 74
        -65 110 -142 43 -89 135 -200 192 -229 68 -35 138 -2 138 67 0 52 -53 153
        -106 201 -25 24 -92 88 -148 144 -61 60 -120 109 -149 123 -51 25 -117 38
        -129 25z m111 -56 c27 -13 88 -64 147 -122 56 -56 120 -118 142 -138 43 -39
        85 -110 96 -164 5 -23 2 -34 -13 -48 -30 -28 -65 -13 -137 56 -49 47 -75 83
        -111 156 -42 84 -57 103 -116 151 -126 102 -130 168 -8 109z"/>
        <path d="M10800 2848 c-93 -48 -89 -148 8 -189 130 -55 150 -68 218 -134 108
        -106 168 -241 162 -367 l-3 -63 -30 43 c-77 110 -93 128 -135 150 -91 47 -160
        18 -432 -179 -237 -173 -288 -221 -336 -318 -36 -74 -37 -77 -37 -190 1 -115
        1 -117 48 -233 40 -100 47 -126 47 -186 0 -81 10 -94 83 -113 61 -15 151 -7
        208 18 25 11 76 48 114 82 99 88 134 105 222 105 63 -1 83 -6 150 -39 67 -32
        97 -57 210 -170 151 -152 165 -160 287 -153 86 5 161 31 204 71 57 53 86 157
        85 307 -2 131 -26 230 -89 360 -44 90 -55 103 -213 260 -92 91 -181 184 -199
        207 -46 59 -83 144 -89 207 l-6 55 58 3 c36 2 60 8 63 16 2 8 -7 12 -28 12
        -18 0 -29 4 -25 10 14 22 43 7 96 -51 53 -56 59 -60 95 -57 47 4 71 38 60 84
        -14 58 -271 276 -441 373 -104 60 -183 90 -252 97 -48 5 -65 2 -103 -18z m247
        -62 c102 -49 244 -144 364 -245 121 -101 151 -136 147 -170 -5 -43 -44 -29
        -107 39 -31 33 -65 60 -74 60 -23 0 -60 -19 -70 -36 -4 -8 -17 -14 -28 -14
        -70 0 -31 -202 63 -323 17 -23 107 -116 199 -207 159 -157 169 -170 213 -260
        65 -135 81 -200 81 -350 0 -190 -33 -265 -137 -310 -64 -28 -203 -32 -240 -8
        -13 9 -80 72 -148 140 -106 107 -137 131 -204 164 -75 37 -86 39 -170 39 -111
        0 -139 -12 -235 -101 -90 -84 -135 -104 -231 -104 -42 0 -86 6 -100 13 -22 11
        -25 19 -22 57 4 59 -13 124 -59 234 -62 150 -62 266 3 387 41 77 94 126 315
        287 227 166 267 187 344 187 67 0 84 -12 137 -95 45 -71 91 -120 113 -120 26
        0 35 77 21 174 -29 202 -178 385 -371 455 -67 24 -88 50 -77 95 17 68 143 74
        273 12z"/>
        <path d="M7640 2258 c-26 -13 -56 -40 -71 -63 -15 -22 -38 -43 -51 -46 -12 -3
        -22 -11 -20 -18 1 -7 -12 -24 -29 -39 -55 -46 -61 -73 -54 -266 7 -213 10
        -228 41 -266 53 -62 144 -28 186 69 11 25 35 107 55 181 27 108 36 161 40 265
        8 201 -7 229 -97 183z m62 -75 c14 -190 -64 -539 -133 -597 -39 -33 -62 -33
        -88 0 -18 23 -21 41 -21 116 0 49 -5 131 -11 182 -11 85 -10 97 7 132 10 21
        36 50 57 64 21 15 54 49 73 78 33 48 73 81 101 82 7 0 13 -23 15 -57z"/>
        <path d="M12667 899 c-15 -11 -31 -38 -38 -62 -6 -23 -25 -58 -43 -77 -53 -57
        -96 -122 -96 -146 0 -32 45 -64 89 -64 107 1 202 106 218 240 13 107 -58 166
        -130 109z m77 -25 c34 -33 12 -153 -40 -221 -32 -42 -73 -63 -124 -63 -75 0
        -65 39 36 149 51 55 61 72 57 93 -4 19 1 30 18 42 29 20 34 20 53 0z"/>

        </g>
        </svg>